<svg width="32" height="28" viewBox="0 0 32 28" fill="none" xmlns="http://www.w3.org/2000/svg">
<path d="M16 17.8345C18.7614 17.8345 21 15.9502 21 13.6259C21 11.3015 18.7614 9.41724 16 9.41724C13.2386 9.41724 11 11.3015 11 13.6259C11 15.9502 13.2386 17.8345 16 17.8345Z" stroke="#0B1035" stroke-opacity="0.75" stroke-width="2" stroke-miterlimit="10"/>
<path d="M21.5 3.94604H10.5C7.18629 3.94604 4.5 6.20717 4.5 8.9964V18.2554C4.5 21.0446 7.18629 23.3058 10.5 23.3058H21.5C24.8137 23.3058 27.5 21.0446 27.5 18.2554V8.9964C27.5 6.20717 24.8137 3.94604 21.5 3.94604Z" stroke="#0B1035" stroke-opacity="0.75" stroke-width="2" stroke-linecap="round" stroke-linejoin="round"/>
<path d="M22.5 9.41727C23.3284 9.41727 24 8.85199 24 8.15468C24 7.45737 23.3284 6.89209 22.5 6.89209C21.6716 6.89209 21 7.45737 21 8.15468C21 8.85199 21.6716 9.41727 22.5 9.41727Z" fill="black"/>
</svg>
