<svg width="32" height="28" viewBox="0 0 32 28" fill="none" xmlns="http://www.w3.org/2000/svg">
<path d="M15.9999 9.41756C16.0001 8.45058 16.3957 7.51312 17.1203 6.76279C17.845 6.01245 18.8544 5.495 19.979 5.29743C21.1036 5.09985 22.2747 5.2342 23.2954 5.67789C24.3161 6.12159 25.1242 6.84756 25.5839 7.73376L29.9999 7.7338L25.9671 11.1283C25.7045 14.5426 23.9081 17.7447 20.9425 20.0845C17.977 22.4244 14.0647 23.7265 9.99994 23.7266C5.99994 23.7266 4.99994 22.464 4.99994 22.464C4.99994 22.464 8.99994 21.2014 10.9999 18.6762C10.9999 18.6762 2.99994 15.3093 4.99994 6.05035C4.99994 6.05035 9.99994 10.259 15.9982 11.1007L15.9999 9.41756Z" stroke="#0B1035" stroke-opacity="0.75" stroke-width="2" stroke-linecap="round" stroke-linejoin="round"/>
</svg>
