<svg width="32" height="28" viewBox="0 0 32 28" fill="none" xmlns="http://www.w3.org/2000/svg">
<path d="M20 13.6259L14 10.259V16.9928L20 13.6259Z" stroke="#0B1035" stroke-opacity="0.75" stroke-width="2" stroke-linecap="round" stroke-linejoin="round"/>
<path d="M3 13.6258C3 16.7566 3.38427 18.5935 3.67638 19.5376C3.75447 19.7954 3.90442 20.0339 4.11382 20.2332C4.32322 20.4325 4.58603 20.587 4.88049 20.6838C9.0651 22.0374 16 22.0002 16 22.0002C16 22.0002 22.9348 22.0374 27.1195 20.6838C27.4139 20.587 27.6767 20.4326 27.8861 20.2332C28.0955 20.0339 28.2455 19.7954 28.3236 19.5376C28.6157 18.5935 29 16.7566 29 13.6258C29 10.4951 28.6157 8.65819 28.3236 7.71411C28.2455 7.45627 28.0956 7.2178 27.8862 7.01847C27.6768 6.81913 27.414 6.66466 27.1195 6.56785C22.9349 5.21428 16 5.25144 16 5.25144C16 5.25144 9.06518 5.21428 4.88053 6.56784C4.58607 6.66464 4.32325 6.81911 4.11385 7.01845C3.90446 7.21779 3.7545 7.45625 3.67641 7.71409C3.38428 8.65817 3 10.4951 3 13.6258Z" stroke="#0B1035" stroke-opacity="0.75" stroke-width="2" stroke-linecap="round" stroke-linejoin="round"/>
</svg>
